<svg width="13" height="14" viewBox="0 0 13 14" fill="none" xmlns="http://www.w3.org/2000/svg">
    <path d="M11.0533 7.28047L6.93328 11.4071C6.39315 11.8871 5.69004 12.1427 4.96776 12.1214C4.24548 12.1001 3.55861 11.8037 3.04766 11.2928C2.53671 10.7818 2.24028 10.0949 2.21902 9.37265C2.19776 8.65037 2.45327 7.94726 2.93328 7.40713L8.26661 2.0738C8.58503 1.77133 9.00743 1.60269 9.44661 1.60269C9.88579 1.60269 10.3082 1.77133 10.6266 2.0738C10.9368 2.38819 11.1108 2.81211 11.1108 3.2538C11.1108 3.69549 10.9368 4.11941 10.6266 4.4338L6.02661 9.02713C5.98109 9.07616 5.92635 9.11574 5.86553 9.14361C5.80471 9.17149 5.73899 9.18711 5.67213 9.18958C5.60528 9.19206 5.53858 9.18134 5.47587 9.15805C5.41315 9.13475 5.35564 9.09933 5.30661 9.0538C5.25758 9.00828 5.218 8.95354 5.19013 8.89272C5.16226 8.8319 5.14664 8.76618 5.14416 8.69932C5.14168 8.63247 5.1524 8.56577 5.1757 8.50306C5.199 8.44034 5.23442 8.38283 5.27994 8.3338L8.69994 4.92047C8.82548 4.79493 8.89601 4.62467 8.89601 4.44713C8.89601 4.2696 8.82548 4.09934 8.69994 3.9738C8.57441 3.84826 8.40415 3.77774 8.22661 3.77774C8.04908 3.77774 7.87881 3.84826 7.75328 3.9738L4.33328 7.40047C4.16215 7.57027 4.02632 7.77227 3.93363 7.99481C3.84094 8.21736 3.79322 8.45606 3.79322 8.69713C3.79322 8.93821 3.84094 9.1769 3.93363 9.39945C4.02632 9.622 4.16215 9.824 4.33328 9.9938C4.68286 10.3268 5.14715 10.5125 5.62994 10.5125C6.11274 10.5125 6.57703 10.3268 6.92661 9.9938L11.5199 5.3938C12.0499 4.8251 12.3384 4.07291 12.3246 3.29571C12.3109 2.51851 11.9961 1.77697 11.4464 1.22731C10.8968 0.677661 10.1552 0.362813 9.37803 0.3491C8.60083 0.335387 7.84864 0.62388 7.27994 1.1538L1.94661 6.48713C1.22741 7.28369 0.843296 8.32703 0.874299 9.39978C0.905303 10.4725 1.34903 11.492 2.11304 12.2456C2.87704 12.9993 3.9024 13.4292 4.97547 13.4456C6.04854 13.462 7.08657 13.0638 7.87328 12.3338L11.9999 8.2138C12.0621 8.15164 12.1114 8.07785 12.1451 7.99663C12.1787 7.91542 12.196 7.82837 12.196 7.74047C12.196 7.65256 12.1787 7.56552 12.1451 7.4843C12.1114 7.40309 12.0621 7.32929 11.9999 7.26713C11.9378 7.20497 11.864 7.15567 11.7828 7.12203C11.7016 7.08839 11.6145 7.07107 11.5266 7.07107C11.4387 7.07107 11.3517 7.08839 11.2704 7.12203C11.1892 7.15567 11.1154 7.20497 11.0533 7.26713V7.28047Z" fill="#333333"/>
</svg>
