<svg width="16" height="16" viewBox="0 0 16 16" fill="none" xmlns="http://www.w3.org/2000/svg">
<path d="M8.00063 13.3332C8.24792 13.3332 8.48509 13.2395 8.65995 13.0727C8.83481 12.9059 8.93304 12.6798 8.93304 12.4439L8.93304 5.69444L11.0683 7.73974C11.1552 7.82265 11.2584 7.88842 11.372 7.93329C11.4856 7.97816 11.6073 8.00126 11.7303 8.00126C11.8532 8.00126 11.975 7.97816 12.0886 7.93329C12.2021 7.88842 12.3054 7.82265 12.3923 7.73974C12.4792 7.65682 12.5482 7.55839 12.5952 7.45006C12.6423 7.34173 12.6665 7.22562 12.6665 7.10836C12.6665 6.99111 12.6423 6.875 12.5952 6.76666C12.5482 6.65833 12.4792 6.5599 12.3923 6.47699L8.66264 2.91995C8.57397 2.839 8.4694 2.77553 8.35495 2.73321C8.12794 2.64427 7.87332 2.64427 7.64632 2.73321C7.53186 2.77553 7.4273 2.839 7.33862 2.91995L3.60898 6.47699C3.52158 6.55966 3.45222 6.65801 3.40488 6.76637C3.35754 6.87474 3.33317 6.99097 3.33317 7.10836C3.33317 7.22575 3.35754 7.34199 3.40488 7.45035C3.45222 7.55871 3.52158 7.65707 3.60898 7.73974C3.69566 7.82308 3.79878 7.88924 3.9124 7.93439C4.02603 7.97953 4.1479 8.00278 4.27099 8.00278C4.39408 8.00278 4.51595 7.97953 4.62957 7.93439C4.74319 7.88924 4.84632 7.82308 4.933 7.73974L7.06822 5.69444L7.06822 12.4439C7.06822 12.6798 7.16646 12.9059 7.34132 13.0727C7.51618 13.2395 7.75334 13.3332 8.00063 13.3332Z" fill="#333333"/>
</svg>
