<svg width="37" height="36" viewBox="0 0 37 36" fill="none" xmlns="http://www.w3.org/2000/svg">
<path fill-rule="evenodd" clip-rule="evenodd" d="M15.5205 15.7761C15.3267 15.7761 15.1409 15.6981 15.0038 15.5592C14.8668 15.4203 14.7898 15.2319 14.7898 15.0355V14.2978C14.4022 14.2978 14.0304 14.4539 13.7563 14.7317C13.4822 15.0095 13.3282 15.3862 13.3282 15.7791V16.7666H23.0718V15.7791C23.0718 15.3862 22.9178 15.0095 22.6438 14.7317C22.3697 14.4539 21.9979 14.2978 21.6103 14.2978V15.0385C21.6103 15.2349 21.5333 15.4233 21.3963 15.5622C21.2592 15.7011 21.0733 15.7791 20.8795 15.7791C20.6857 15.7791 20.4998 15.7011 20.3628 15.5622C20.2257 15.4233 20.1488 15.2349 20.1488 15.0385V14.2978H16.2513V15.0355C16.2513 15.2319 16.1743 15.4203 16.0373 15.5592C15.9002 15.6981 15.7144 15.7761 15.5205 15.7761ZM20.1488 12.8166H16.2513V12.074C16.2513 11.8775 16.1743 11.6892 16.0373 11.5503C15.9002 11.4114 15.7144 11.3333 15.5205 11.3333C15.3267 11.3333 15.1409 11.4114 15.0038 11.5503C14.8668 11.6892 14.7898 11.8775 14.7898 12.074V12.8166C14.0145 12.8166 13.271 13.1287 12.7228 13.6843C12.1747 14.2399 11.8667 14.9934 11.8667 15.7791V21.7042C11.8667 22.4899 12.1747 23.2434 12.7228 23.799C13.271 24.3546 14.0145 24.6667 14.7898 24.6667H21.6103C22.3855 24.6667 23.129 24.3546 23.6772 23.799C24.2254 23.2434 24.5334 22.4899 24.5334 21.7042V15.7791C24.5334 14.9934 24.2254 14.2399 23.6772 13.6843C23.129 13.1287 22.3855 12.8166 21.6103 12.8166V12.0759C21.6103 11.8795 21.5333 11.6911 21.3963 11.5522C21.2592 11.4133 21.0733 11.3353 20.8795 11.3353C20.6857 11.3353 20.4998 11.4133 20.3628 11.5522C20.2257 11.6911 20.1488 11.8795 20.1488 12.0759V12.8166ZM13.3282 18.2479V21.7042C13.3282 22.097 13.4822 22.4738 13.7563 22.7516C14.0304 23.0294 14.4022 23.1854 14.7898 23.1854H21.6103C21.9979 23.1854 22.3697 23.0294 22.6438 22.7516C22.9178 22.4738 23.0718 22.097 23.0718 21.7042V18.2479H13.3282Z" fill="#333333"/>
</svg>
