<svg width="16" height="16" viewBox="0 0 16 16" fill="none" xmlns="http://www.w3.org/2000/svg">
    <path fill-rule="evenodd" clip-rule="evenodd" d="M8 7.09057L12.902 2.18771C13.0271 2.06257 13.1926 2 13.3571 2C13.7034 2 14 2.27771 14 2.642C14 2.80743 13.9374 2.972 13.8123 3.098L8.90943 8L13.8114 12.902C13.9374 13.028 14 13.1926 14 13.3571C14 13.7231 13.7009 14 13.3571 14C13.1926 14 13.0271 13.9374 12.902 13.8123L8 8.91029L3.098 13.8123C2.97286 13.9374 2.80743 14 2.64286 14C2.29914 14 2 13.7231 2 13.3571C2 13.1926 2.06257 13.028 2.18857 12.902L7.09057 8L2.18771 3.098C2.06257 2.972 2 2.80743 2 2.642C2 2.27771 2.29657 2 2.64286 2C2.80743 2 2.97286 2.06257 3.098 2.18771L8 7.09057Z" fill="black"/>
</svg>
