<svg width="36" height="36" viewBox="0 0 36 36" fill="none" xmlns="http://www.w3.org/2000/svg">
<path d="M18.9398 18L23.1398 13.8067C23.2653 13.6811 23.3359 13.5109 23.3359 13.3333C23.3359 13.1558 23.2653 12.9855 23.1398 12.86C23.0143 12.7345 22.844 12.6639 22.6665 12.6639C22.4889 12.6639 22.3187 12.7345 22.1931 12.86L17.9998 17.06L13.8065 12.86C13.6809 12.7345 13.5107 12.6639 13.3331 12.6639C13.1556 12.6639 12.9853 12.7345 12.8598 12.86C12.7343 12.9855 12.6637 13.1558 12.6637 13.3333C12.6637 13.5109 12.7343 13.6811 12.8598 13.8067L17.0598 18L12.8598 22.1933C12.7973 22.2553 12.7477 22.329 12.7139 22.4103C12.68 22.4915 12.6626 22.5787 12.6626 22.6667C12.6626 22.7547 12.68 22.8418 12.7139 22.9231C12.7477 23.0043 12.7973 23.078 12.8598 23.14C12.9218 23.2025 12.9955 23.2521 13.0767 23.2859C13.158 23.3198 13.2451 23.3372 13.3331 23.3372C13.4211 23.3372 13.5083 23.3198 13.5895 23.2859C13.6708 23.2521 13.7445 23.2025 13.8065 23.14L17.9998 18.94L22.1931 23.14C22.2551 23.2025 22.3288 23.2521 22.4101 23.2859C22.4913 23.3198 22.5785 23.3372 22.6665 23.3372C22.7545 23.3372 22.8416 23.3198 22.9228 23.2859C23.0041 23.2521 23.0778 23.2025 23.1398 23.14C23.2023 23.078 23.2519 23.0043 23.2857 22.9231C23.3196 22.8418 23.337 22.7547 23.337 22.6667C23.337 22.5787 23.3196 22.4915 23.2857 22.4103C23.2519 22.329 23.2023 22.2553 23.1398 22.1933L18.9398 18Z" fill="#333333"/>
</svg>
