<svg width="12" height="12" viewBox="0 0 12 12" fill="none" xmlns="http://www.w3.org/2000/svg">
    <path d="M6.94028 5.99988L11.1403 1.80655C11.2658 1.68101 11.3363 1.51075 11.3363 1.33321C11.3363 1.15568 11.2658 0.985415 11.1403 0.859879C11.0147 0.734344 10.8445 0.663818 10.667 0.663818C10.4894 0.663818 10.3192 0.734344 10.1936 0.859879L6.00029 5.05988L1.80695 0.859879C1.68142 0.734344 1.51115 0.663819 1.33362 0.663819C1.15608 0.663819 0.985821 0.734344 0.860285 0.859879C0.734749 0.985415 0.664224 1.15568 0.664224 1.33321C0.664224 1.51075 0.734749 1.68101 0.860285 1.80655L5.06029 5.99988L0.860285 10.1932C0.797799 10.2552 0.748203 10.3289 0.714357 10.4102C0.680512 10.4914 0.663086 10.5785 0.663086 10.6665C0.663086 10.7546 0.680512 10.8417 0.714357 10.9229C0.748203 11.0042 0.797799 11.0779 0.860285 11.1399C0.92226 11.2024 0.995994 11.252 1.07723 11.2858C1.15847 11.3197 1.24561 11.3371 1.33362 11.3371C1.42163 11.3371 1.50876 11.3197 1.59 11.2858C1.67124 11.252 1.74498 11.2024 1.80695 11.1399L6.00029 6.93988L10.1936 11.1399C10.2556 11.2024 10.3293 11.252 10.4106 11.2858C10.4918 11.3197 10.5789 11.3371 10.667 11.3371C10.755 11.3371 10.8421 11.3197 10.9233 11.2858C11.0046 11.252 11.0783 11.2024 11.1403 11.1399C11.2028 11.0779 11.2524 11.0042 11.2862 10.9229C11.3201 10.8417 11.3375 10.7546 11.3375 10.6665C11.3375 10.5785 11.3201 10.4914 11.2862 10.4102C11.2524 10.3289 11.2028 10.2552 11.1403 10.1932L6.94028 5.99988Z" fill="#333333"/>
</svg>
