<svg width="14" height="14" viewBox="0 0 14 14" fill="none" xmlns="http://www.w3.org/2000/svg">
    <path d="M6.99967 3.66659C6.82286 3.66659 6.65329 3.73682 6.52827 3.86185C6.40325 3.98687 6.33301 4.15644 6.33301 4.33325V6.99992C6.33301 7.17673 6.40325 7.3463 6.52827 7.47132C6.65329 7.59635 6.82286 7.66659 6.99967 7.66659C7.17649 7.66659 7.34606 7.59635 7.47108 7.47132C7.5961 7.3463 7.66634 7.17673 7.66634 6.99992V4.33325C7.66634 4.15644 7.5961 3.98687 7.47108 3.86185C7.34606 3.73682 7.17649 3.66659 6.99967 3.66659ZM6.99967 8.99992C6.86782 8.99992 6.73893 9.03902 6.62929 9.11227C6.51966 9.18553 6.43421 9.28965 6.38375 9.41146C6.3333 9.53328 6.32009 9.66733 6.34582 9.79665C6.37154 9.92597 6.43504 10.0448 6.52827 10.138C6.62151 10.2312 6.74029 10.2947 6.86961 10.3204C6.99894 10.3462 7.13298 10.333 7.2548 10.2825C7.37661 10.232 7.48073 10.1466 7.55399 10.037C7.62724 9.92733 7.66634 9.79844 7.66634 9.66659C7.66634 9.48977 7.5961 9.32021 7.47108 9.19518C7.34606 9.07016 7.17649 8.99992 6.99967 8.99992ZM13.473 4.03992L9.95967 0.526585C9.83192 0.404763 9.66285 0.335708 9.48634 0.333252H4.51301C4.3365 0.335708 4.16743 0.404763 4.03967 0.526585L0.526341 4.03992C0.404519 4.16767 0.335463 4.33674 0.333008 4.51325V9.48659C0.335463 9.6631 0.404519 9.83216 0.526341 9.95992L4.03967 13.4733C4.16743 13.5951 4.3365 13.6641 4.51301 13.6666H9.48634C9.66285 13.6641 9.83192 13.5951 9.95967 13.4733L13.473 9.95992C13.5948 9.83216 13.6639 9.6631 13.6663 9.48659V4.51325C13.6639 4.33674 13.5948 4.16767 13.473 4.03992ZM12.333 9.20659L9.20634 12.3333H4.79301L1.66634 9.20659V4.79325L4.79301 1.66659H9.20634L12.333 4.79325V9.20659Z" fill="#8F100D"/>
</svg>
