<svg width="16" height="16" viewBox="0 0 16 16" fill="none" xmlns="http://www.w3.org/2000/svg">
<path d="M7.99912 2.66634C7.75183 2.66634 7.51467 2.76003 7.33981 2.9268C7.16495 3.09357 7.06671 3.31975 7.06671 3.5556L7.06671 10.3051L4.93149 8.25978C4.84455 8.17686 4.74135 8.11109 4.62776 8.06622C4.51417 8.02135 4.39243 7.99825 4.26948 7.99825C4.14653 7.99825 4.02479 8.02135 3.9112 8.06622C3.79761 8.11109 3.6944 8.17686 3.60747 8.25978C3.52053 8.34269 3.45157 8.44112 3.40452 8.54945C3.35747 8.65778 3.33325 8.77389 3.33325 8.89115C3.33325 9.00841 3.35747 9.12452 3.40452 9.23285C3.45157 9.34118 3.52053 9.43961 3.60747 9.52252L7.33711 13.0796C7.42579 13.1605 7.53035 13.224 7.64481 13.2663C7.87181 13.3552 8.12643 13.3552 8.35344 13.2663C8.46789 13.224 8.57246 13.1605 8.66113 13.0796L12.3908 9.52252C12.4782 9.43986 12.5475 9.3415 12.5949 9.23314C12.6422 9.12477 12.6666 9.00854 12.6666 8.89115C12.6666 8.77376 12.6422 8.65753 12.5949 8.54916C12.5475 8.4408 12.4782 8.34244 12.3908 8.25978C12.3041 8.17643 12.201 8.11027 12.0873 8.06513C11.9737 8.01998 11.8519 7.99674 11.7288 7.99674C11.6057 7.99674 11.4838 8.01998 11.3702 8.06513C11.2566 8.11027 11.1534 8.17643 11.0668 8.25978L8.93153 10.3051L8.93153 3.5556C8.93153 3.31975 8.8333 3.09357 8.65844 2.9268C8.48358 2.76003 8.24641 2.66634 7.99912 2.66634Z" fill="#333333"/>
</svg>
