<svg width="13" height="14" viewBox="0 0 13 14" fill="none" xmlns="http://www.w3.org/2000/svg">
<path fill-rule="evenodd" clip-rule="evenodd" d="M3.82084 4.77629C3.62703 4.77629 3.44115 4.69826 3.30411 4.55937C3.16706 4.42047 3.09007 4.23209 3.09007 4.03566V3.298C2.70244 3.298 2.3307 3.45406 2.05661 3.73185C1.78251 4.00964 1.62853 4.3864 1.62853 4.77926V5.76677H11.3721V4.77926C11.3721 4.3864 11.2181 4.00964 10.944 3.73185C10.67 3.45406 10.2982 3.298 9.91058 3.298V4.03863C9.91058 4.23505 9.83359 4.42344 9.69654 4.56233C9.5595 4.70123 9.37362 4.77926 9.17981 4.77926C8.986 4.77926 8.80013 4.70123 8.66308 4.56233C8.52604 4.42344 8.44904 4.23505 8.44904 4.03863V3.298H4.55161V4.03566C4.55161 4.23209 4.47462 4.42047 4.33757 4.55937C4.20052 4.69826 4.01465 4.77629 3.82084 4.77629ZM8.44904 1.81673H4.55161V1.07413C4.55161 0.8777 4.47462 0.689317 4.33757 0.550422C4.20052 0.411527 4.01465 0.333496 3.82084 0.333496C3.62703 0.333496 3.44115 0.411527 3.30411 0.550422C3.16706 0.689317 3.09007 0.8777 3.09007 1.07413V1.81673C2.31482 1.81673 1.57132 2.12886 1.02314 2.68444C0.474958 3.24002 0.166992 3.99355 0.166992 4.77926V10.7043C0.166992 11.49 0.474958 12.2435 1.02314 12.7991C1.57132 13.3547 2.31482 13.6668 3.09007 13.6668H9.91058C10.6858 13.6668 11.4293 13.3547 11.9775 12.7991C12.5257 12.2435 12.8337 11.49 12.8337 10.7043V4.77926C12.8337 3.99355 12.5257 3.24002 11.9775 2.68444C11.4293 2.12886 10.6858 1.81673 9.91058 1.81673V1.0761C9.91058 0.879675 9.83359 0.691292 9.69654 0.552397C9.5595 0.413502 9.37362 0.335471 9.17981 0.335471C8.986 0.335471 8.80013 0.413502 8.66308 0.552397C8.52604 0.691292 8.44904 0.879675 8.44904 1.0761V1.81673ZM1.62853 7.24803V10.7043C1.62853 11.0972 1.78251 11.4739 2.05661 11.7517C2.3307 12.0295 2.70244 12.1856 3.09007 12.1856H9.91058C10.2982 12.1856 10.67 12.0295 10.944 11.7517C11.2181 11.4739 11.3721 11.0972 11.3721 10.7043V7.24803H1.62853Z" fill="#333333"/>
</svg>
