<svg width="15" height="14" viewBox="0 0 15 14" fill="none" xmlns="http://www.w3.org/2000/svg">
<path d="M13.9733 12.5266L11.4999 10.0733C12.46 8.87621 12.9249 7.3568 12.7991 5.82747C12.6733 4.29814 11.9664 2.87512 10.8236 1.85103C9.68085 0.82694 8.18914 0.27961 6.65522 0.321583C5.12129 0.363557 3.66175 0.991644 2.5767 2.0767C1.49164 3.16175 0.863557 4.62129 0.821583 6.15522C0.77961 7.68914 1.32694 9.18085 2.35103 10.3236C3.37512 11.4664 4.79814 12.1733 6.32747 12.2991C7.8568 12.4249 9.37621 11.96 10.5733 10.9999L13.0266 13.4533C13.0886 13.5158 13.1623 13.5654 13.2436 13.5992C13.3248 13.633 13.4119 13.6505 13.4999 13.6505C13.5879 13.6505 13.6751 13.633 13.7563 13.5992C13.8376 13.5654 13.9113 13.5158 13.9733 13.4533C14.0934 13.329 14.1606 13.1628 14.1606 12.9899C14.1606 12.817 14.0934 12.6509 13.9733 12.5266ZM6.83327 10.9999C5.91029 10.9999 5.00804 10.7262 4.24061 10.2135C3.47318 9.70068 2.87504 8.97185 2.52183 8.11913C2.16862 7.2664 2.07621 6.32809 2.25627 5.42285C2.43634 4.5176 2.88079 3.68608 3.53344 3.03344C4.18608 2.38079 5.0176 1.93634 5.92285 1.75627C6.82809 1.57621 7.7664 1.66862 8.61913 2.02183C9.47185 2.37504 10.2007 2.97318 10.7135 3.74061C11.2262 4.50804 11.4999 5.41029 11.4999 6.33327C11.4999 7.57095 11.0083 8.75793 10.1331 9.6331C9.25793 10.5083 8.07095 10.9999 6.83327 10.9999Z" fill="#333333"/>
</svg>
