<svg width="16" height="16" viewBox="0 0 16 16" fill="none" xmlns="http://www.w3.org/2000/svg">
    <path fill-rule="evenodd" clip-rule="evenodd" d="M5.52884 12.4714C5.26844 12.2111 5.26844 11.789 5.52884 11.5286L9.5288 7.52862C9.78915 7.26827 10.2113 7.26827 10.4716 7.52862C10.732 7.78897 10.732 8.21108 10.4716 8.47142L6.47161 12.4714C6.21126 12.7318 5.78914 12.7318 5.52884 12.4714Z" fill="#333333"/>
    <path fill-rule="evenodd" clip-rule="evenodd" d="M5.52884 3.5286C5.26844 3.789 5.26844 4.2111 5.52884 4.4714L9.5288 8.47143C9.78915 8.73177 10.2113 8.73177 10.4716 8.47142C10.732 8.21108 10.732 7.78897 10.4716 7.52862L6.47161 3.5286C6.21126 3.2683 5.78914 3.2683 5.52884 3.5286Z" fill="#333333"/>
</svg>
