<svg width="100" height="100" viewBox="0 0 100 100" fill="none" xmlns="http://www.w3.org/2000/svg">
<path d="M71.0384 67.9617L63 59.9884C66.1203 56.0979 67.6313 51.1599 67.2225 46.1895C66.8136 41.2192 64.516 36.5944 60.802 33.2661C57.088 29.9378 52.24 28.159 47.2547 28.2954C42.2695 28.4318 37.5259 30.4731 33.9995 33.9995C30.4731 37.5259 28.4318 42.2695 28.2954 47.2547C28.159 52.24 29.9378 57.088 33.2661 60.802C36.5944 64.516 41.2192 66.8136 46.1895 67.2225C51.1599 67.6313 56.0979 66.1203 59.9884 63L67.9617 70.9734C68.1631 71.1765 68.4028 71.3376 68.6668 71.4476C68.9308 71.5576 69.214 71.6143 69.5 71.6143C69.7861 71.6143 70.0693 71.5576 70.3333 71.4476C70.5973 71.3376 70.837 71.1765 71.0384 70.9734C71.4289 70.5694 71.6472 70.0294 71.6472 69.4675C71.6472 68.9056 71.4289 68.3657 71.0384 67.9617ZM47.8334 63C44.8337 63 41.9014 62.1105 39.4072 60.444C36.9131 58.7775 34.9691 56.4088 33.8212 53.6374C32.6733 50.8661 32.3729 47.8165 32.9581 44.8745C33.5433 41.9325 34.9878 39.23 37.1089 37.1089C39.23 34.9878 41.9325 33.5433 44.8745 32.9581C47.8165 32.3729 50.8661 32.6733 53.6374 33.8212C56.4088 34.9691 58.7775 36.9131 60.444 39.4072C62.1105 41.9014 63 44.8337 63 47.8334C63 51.8558 61.4021 55.7135 58.5578 58.5578C55.7135 61.4021 51.8558 63 47.8334 63Z" fill="#333333"/>
</svg>
