<svg width="16" height="16" viewBox="0 0 16 16" fill="none" xmlns="http://www.w3.org/2000/svg">
<path fill-rule="evenodd" clip-rule="evenodd" d="M10.4712 3.52858C10.7316 3.78892 10.7316 4.21103 10.4712 4.47138L6.47124 8.47138C6.21089 8.73173 5.78878 8.73173 5.52843 8.47138C5.26808 8.21103 5.26808 7.78892 5.52843 7.52858L9.52843 3.52858C9.78878 3.26823 10.2109 3.26823 10.4712 3.52858Z" fill="#333333"/>
<path fill-rule="evenodd" clip-rule="evenodd" d="M10.4712 12.4714C10.7316 12.211 10.7316 11.7889 10.4712 11.5286L6.47124 7.52857C6.21089 7.26823 5.78878 7.26823 5.52843 7.52858C5.26808 7.78892 5.26808 8.21103 5.52843 8.47138L9.52843 12.4714C9.78878 12.7317 10.2109 12.7317 10.4712 12.4714Z" fill="#333333"/>
</svg>
