<svg width="12" height="14" viewBox="0 0 12 14" fill="none" xmlns="http://www.w3.org/2000/svg">
    <path d="M11.3275 0.334473C11.2399 0.334423 11.1532 0.351633 11.0723 0.385118C10.9914 0.418603 10.9179 0.467708 10.856 0.529623C10.794 0.591539 10.7449 0.665052 10.7115 0.745958C10.678 0.826864 10.6608 0.913577 10.6608 1.00114V1.42562C10.0985 2.12275 9.38791 2.68575 8.58064 3.07362C7.77336 3.46149 6.88976 3.66448 5.99414 3.66781H1.99414C1.46389 3.66838 0.955514 3.87928 0.580566 4.25423C0.205619 4.62918 -0.00528058 5.13755 -0.00585938 5.66781V7.00114C-0.00528058 7.53139 0.205619 8.03977 0.580566 8.41471C0.955514 8.78966 1.46389 9.00056 1.99414 9.00114H2.31667L0.714847 12.7387C0.671317 12.8401 0.653644 12.9507 0.663415 13.0606C0.673186 13.1705 0.710095 13.2762 0.770828 13.3683C0.831561 13.4604 0.914217 13.536 1.01137 13.5883C1.10853 13.6406 1.21715 13.6679 1.32747 13.6678H3.99414C4.12464 13.6679 4.25229 13.6296 4.36121 13.5577C4.47013 13.4858 4.55553 13.3835 4.60677 13.2635L6.42261 9.02647C7.24304 9.08671 8.04241 9.31449 8.77136 9.69576C9.50031 10.077 10.1434 10.6037 10.6608 11.2432V11.6678C10.6608 11.8446 10.731 12.0142 10.8561 12.1392C10.9811 12.2642 11.1507 12.3345 11.3275 12.3345C11.5043 12.3345 11.6739 12.2642 11.7989 12.1392C11.9239 12.0142 11.9941 11.8446 11.9941 11.6678V1.00114C11.9942 0.913577 11.977 0.826864 11.9435 0.745957C11.91 0.66505 11.8609 0.591537 11.799 0.529622C11.7371 0.467706 11.6636 0.418601 11.5827 0.385116C11.5018 0.351631 11.415 0.334422 11.3275 0.334473ZM1.99414 7.66781C1.81737 7.66769 1.64787 7.59741 1.52287 7.47241C1.39787 7.34741 1.32759 7.17791 1.32747 7.00114V5.66781C1.32759 5.49103 1.39787 5.32153 1.52287 5.19653C1.64787 5.07154 1.81737 5.00126 1.99414 5.00114H2.66081V7.66781H1.99414ZM3.55469 12.3345H2.33854L3.76693 9.00114H4.98307L3.55469 12.3345ZM10.6608 9.34901C9.34631 8.26609 7.69725 7.67199 5.99414 7.66777H3.99414V5.00111H5.99414C7.69729 4.99675 9.34634 4.40254 10.6608 3.31955V9.34901Z" fill="white"/>
</svg>