<svg width="36" height="36" viewBox="0 0 36 36" fill="none" xmlns="http://www.w3.org/2000/svg">
<path d="M24.4733 23.5267L21.9999 21.0734C22.96 19.8763 23.4249 18.3569 23.2991 16.8276C23.1733 15.2983 22.4664 13.8752 21.3236 12.8512C20.1808 11.8271 18.6891 11.2797 17.1552 11.3217C15.6213 11.3637 14.1618 11.9918 13.0767 13.0768C11.9916 14.1619 11.3636 15.6214 11.3216 17.1553C11.2796 18.6893 11.8269 20.181 12.851 21.3237C13.8751 22.4665 15.2981 23.1735 16.8275 23.2993C18.3568 23.4251 19.8762 22.9601 21.0733 22.0001L23.5266 24.4534C23.5886 24.5159 23.6623 24.5655 23.7436 24.5993C23.8248 24.6332 23.9119 24.6506 23.9999 24.6506C24.0879 24.6506 24.1751 24.6332 24.2563 24.5993C24.3376 24.5655 24.4113 24.5159 24.4733 24.4534C24.5934 24.3291 24.6606 24.163 24.6606 23.9901C24.6606 23.8172 24.5934 23.651 24.4733 23.5267ZM17.3333 22.0001C16.4103 22.0001 15.508 21.7264 14.7406 21.2136C13.9732 20.7008 13.375 19.972 13.0218 19.1192C12.6686 18.2665 12.5762 17.3282 12.7563 16.423C12.9363 15.5177 13.3808 14.6862 14.0334 14.0336C14.6861 13.3809 15.5176 12.9365 16.4228 12.7564C17.3281 12.5763 18.2664 12.6687 19.1191 13.022C19.9718 13.3752 20.7007 13.9733 21.2135 14.7407C21.7262 15.5082 21.9999 16.4104 21.9999 17.3334C21.9999 18.5711 21.5083 19.7581 20.6331 20.6332C19.7579 21.5084 18.5709 22.0001 17.3333 22.0001Z" fill="#333333"/>
</svg>
