<svg width="37" height="36" viewBox="0 0 37 36" fill="none" xmlns="http://www.w3.org/2000/svg">
<path d="M15.5363 16C15.3594 16 15.1899 16.0703 15.0649 16.1953C14.9398 16.3203 14.8696 16.4899 14.8696 16.6667L14.8696 21.7267L13.3429 20.1934C13.2808 20.1312 13.207 20.0819 13.1258 20.0483C13.0445 20.0146 12.9575 19.9973 12.8696 19.9973C12.7817 19.9973 12.6946 20.0146 12.6134 20.0483C12.5322 20.0819 12.4584 20.1312 12.3963 20.1934C12.3341 20.2555 12.2848 20.3293 12.2511 20.4105C12.2175 20.4917 12.2002 20.5788 12.2002 20.6667C12.2002 20.7546 12.2175 20.8416 12.2511 20.9229C12.2848 21.0041 12.3341 21.0779 12.3963 21.14L15.0629 23.8067C15.1263 23.8674 15.2011 23.915 15.2829 23.9467C15.4452 24.0134 15.6273 24.0134 15.7896 23.9467C15.8714 23.915 15.9462 23.8674 16.0096 23.8067L18.6763 21.14C18.7387 21.0781 18.7883 21.0043 18.8222 20.9231C18.856 20.8418 18.8735 20.7547 18.8735 20.6667C18.8735 20.5787 18.856 20.4915 18.8222 20.4103C18.7883 20.3291 18.7387 20.2553 18.6763 20.1934C18.6143 20.1309 18.5405 20.0813 18.4593 20.0474C18.3781 20.0136 18.2909 19.9962 18.2029 19.9962C18.1149 19.9962 18.0278 20.0136 17.9465 20.0474C17.8653 20.0813 17.7916 20.1309 17.7296 20.1934L16.2029 21.7267L16.2029 16.6667C16.2029 16.4899 16.1327 16.3203 16.0077 16.1953C15.8826 16.0703 15.7131 16 15.5363 16Z" fill="#333333"/>
<path d="M20.871 19.9967C21.0478 19.9967 21.2174 19.9264 21.3424 19.8014C21.4674 19.6764 21.5376 19.5068 21.5376 19.33L21.5376 14.27L23.0643 15.8033C23.1265 15.8655 23.2003 15.9148 23.2815 15.9484C23.3627 15.9821 23.4497 15.9994 23.5376 15.9994C23.6255 15.9994 23.7126 15.9821 23.7938 15.9484C23.875 15.9148 23.9488 15.8655 24.011 15.8033C24.0731 15.7412 24.1224 15.6674 24.1561 15.5862C24.1897 15.505 24.207 15.4179 24.207 15.33C24.207 15.2421 24.1897 15.1551 24.1561 15.0738C24.1224 14.9926 24.0731 14.9188 24.011 14.8567L21.3443 12.19C21.2809 12.1293 21.2061 12.0817 21.1243 12.05C20.962 11.9833 20.7799 11.9833 20.6176 12.05C20.5358 12.0817 20.461 12.1293 20.3976 12.19L17.731 14.8567C17.6685 14.9187 17.6189 14.9924 17.585 15.0736C17.5512 15.1549 17.5338 15.242 17.5338 15.33C17.5338 15.418 17.5512 15.5052 17.585 15.5864C17.6189 15.6676 17.6685 15.7414 17.731 15.8033C17.7929 15.8658 17.8667 15.9154 17.9479 15.9493C18.0292 15.9831 18.1163 16.0005 18.2043 16.0005C18.2923 16.0005 18.3794 15.9831 18.4607 15.9493C18.5419 15.9154 18.6157 15.8658 18.6776 15.8033L20.2043 14.27L20.2043 19.33C20.2043 19.5068 20.2745 19.6764 20.3996 19.8014C20.5246 19.9264 20.6942 19.9967 20.871 19.9967Z" fill="#333333"/>
</svg>
