<svg width="14" height="14" viewBox="0 0 14 14" fill="none" xmlns="http://www.w3.org/2000/svg">
    <path d="M8.81301 4.85967L5.95301 7.72634L4.85301 6.62634C4.79325 6.55655 4.7197 6.49987 4.63699 6.45986C4.55428 6.41984 4.46419 6.39736 4.37238 6.39381C4.28057 6.39026 4.18901 6.40573 4.10346 6.43925C4.01791 6.47277 3.94021 6.5236 3.87524 6.58857C3.81027 6.65354 3.75944 6.73124 3.72592 6.81679C3.6924 6.90234 3.67693 6.9939 3.68048 7.08571C3.68402 7.17752 3.70651 7.26761 3.74653 7.35032C3.78654 7.43303 3.84322 7.50658 3.91301 7.56634L5.47968 9.13968C5.54197 9.20146 5.61585 9.25035 5.69707 9.28352C5.7783 9.3167 5.86527 9.33352 5.95301 9.33301C6.1279 9.33227 6.2955 9.26284 6.41968 9.13968L9.75301 5.80634C9.8155 5.74437 9.86509 5.67063 9.89894 5.58939C9.93279 5.50815 9.95021 5.42102 9.95021 5.33301C9.95021 5.245 9.93279 5.15786 9.89894 5.07662C9.86509 4.99538 9.8155 4.92165 9.75301 4.85967C9.6281 4.73551 9.45914 4.66581 9.28301 4.66581C9.10689 4.66581 8.93792 4.73551 8.81301 4.85967ZM6.99968 0.333008C5.68114 0.333008 4.3922 0.724001 3.29588 1.45654C2.19955 2.18909 1.34506 3.23028 0.840481 4.44845C0.335896 5.66663 0.203874 7.00707 0.461109 8.30028C0.718344 9.59348 1.35328 10.7814 2.28563 11.7137C3.21798 12.6461 4.40587 13.281 5.69908 13.5382C6.99228 13.7955 8.33273 13.6635 9.5509 13.1589C10.7691 12.6543 11.8103 11.7998 12.5428 10.7035C13.2754 9.60715 13.6663 8.31822 13.6663 6.99967C13.6663 6.1242 13.4939 5.25729 13.1589 4.44845C12.8238 3.63961 12.3328 2.90469 11.7137 2.28563C11.0947 1.66657 10.3597 1.17551 9.5509 0.840478C8.74206 0.505446 7.87516 0.333008 6.99968 0.333008ZM6.99968 12.333C5.94484 12.333 4.9137 12.0202 4.03664 11.4342C3.15957 10.8481 2.47599 10.0152 2.07232 9.04065C1.66865 8.06611 1.56304 6.99376 1.76882 5.95919C1.97461 4.92463 2.48256 3.97432 3.22844 3.22844C3.97432 2.48256 4.92463 1.97461 5.9592 1.76882C6.99376 1.56303 8.06612 1.66865 9.04066 2.07232C10.0152 2.47598 10.8481 3.15957 11.4342 4.03663C12.0202 4.9137 12.333 5.94484 12.333 6.99967C12.333 8.41416 11.7711 9.77072 10.7709 10.7709C9.77072 11.7711 8.41417 12.333 6.99968 12.333Z" fill="#006C23"/>
</svg>
